<svg version="1.1" id="Layer_1" xmlns="http://www.w3.org/2000/svg" xmlns:xlink="http://www.w3.org/1999/xlink" x="0px" y="0px"
	 viewBox="0 0 81.5 90" style="enable-background:new 0 0 81.5 90;" xml:space="preserve">
<path d="M72.3,23.4l2.8-2.8c0.1-0.1,0.2-0.2,0.3-0.3c2.3-2.3,2.3-6.1,0-8.4c-2.3-2.3-6.1-2.3-8.4,0l-3.6,3.6
	c-4.5-3-9.7-5.2-15.3-6.3c0.1-0.5,0.2-1,0.2-1.6C48.4,3.4,45,0,40.8,0c-4.2,0-7.6,3.4-7.6,7.6c0,0.5,0.1,1.1,0.2,1.6
	C14.4,12.7,0,29.3,0,49.2C0,71.8,18.2,90,40.8,90c22.5,0,40.8-18.3,40.8-40.8C81.5,39.4,78,30.4,72.3,23.4z M40.8,3.1
	c2.5,0,4.5,2,4.5,4.5c0,2.5-2,4.5-4.5,4.5c-2.5,0-4.5-2-4.5-4.5C36.3,5.1,38.3,3.1,40.8,3.1z M40.8,80.6
	c-17.4,0-31.4-14.1-31.4-31.4c0-17.3,14.1-31.4,31.4-31.4c17.3,0,31.4,14.1,31.4,31.4C72.1,66.6,58.1,80.6,40.8,80.6z M51.2,65.5
	L36.5,50.8V24.4h0c0-2,1.6-3.6,3.6-3.6l0,0c2,0,3.6,1.6,3.6,3.6l0,0v23.5l12.6,12.6c1.4,1.4,1.4,3.7,0,5.1l0,0c-0.7,0.7-1.6,1-2.5,1
	l0,0C52.8,66.5,51.9,66.2,51.2,65.5L51.2,65.5z"/>
</svg>
