<svg version="1.1" id="Layer_1" xmlns="http://www.w3.org/2000/svg" xmlns:xlink="http://www.w3.org/1999/xlink" x="0px" y="0px"
	 viewBox="0 0 52 97.3" style="enable-background:new 0 0 52 97.3;" xml:space="preserve">
<path d="M21.6,37.4c1.2,1.5,3.6,2.9,7,4.4c7.9,3.4,13.7,6.7,17.4,10.1s5.6,8.1,5.6,14.4c0,5.9-1.9,10.7-5.6,14.3
	c-3.2,3.1-7.3,5.1-12.3,6v8.6c0,1.1-0.9,2.1-2.1,2.1h-7.5c-1.1,0-2.1-0.9-2.1-2.1v-8.4c-6.3-0.7-11.5-3-15.7-6.8
	c-3.9-3.5-6-8.5-6.3-15c-0.1-1.3,1-2.4,2.4-2.5l12.2-0.2c1.2,0,2.3,0.9,2.4,2.1c0.3,3.1,1.2,5.4,2.7,7c1.8,1.9,4.2,2.8,7.2,2.8
	c2.5,0,4.3-0.7,5.6-2.1s1.9-3.3,1.9-5.6c0-2.7-0.6-4.8-1.9-6.3c-1.3-1.5-3.6-2.9-6.9-4.4c-8-3.2-13.9-6.4-17.5-9.7
	C4.4,42.8,2.6,38,2.6,31.6c0-5.8,1.9-10.5,5.8-14.2c3.5-3.4,8.1-5.5,13.8-6.3v-9C22.2,1,23.1,0,24.3,0h7.5c1.1,0,2.1,0.9,2.1,2.1
	v9.2c5.3,1.1,9.6,3.5,12.9,7.3c3.1,3.6,4.8,8.1,5.2,13.5c0.1,1.3-1,2.5-2.4,2.5l-12.5,0.1c-1.2,0-2.3-0.9-2.4-2.1
	c-0.2-2.7-0.9-4.7-2.1-6.2c-1.4-1.7-3.3-2.7-5.7-2.7s-4.2,0.8-5.4,2.2c-1.2,1.5-1.7,3.4-1.7,5.7C19.8,34.1,20.4,36,21.6,37.4z"/>
</svg>
