<svg version="1.1" id="Layer_1" xmlns="http://www.w3.org/2000/svg" xmlns:xlink="http://www.w3.org/1999/xlink" x="0px" y="0px"
	 viewBox="0 0 58.8 90.4" style="enable-background:new 0 0 58.8 90.4;" xml:space="preserve">
<path d="M29.4,17.1c-6.8,0-12.3,5.5-12.3,12.3c0,6.8,5.5,12.3,12.3,12.3c6.8,0,12.3-5.5,12.3-12.3C41.7,22.6,36.2,17.1,29.4,17.1z
	 M32.4,90.4c2-22.3,26.4-42.2,26.4-61.6C58.8,12.9,45.6,0,29.4,0C13.2,0,0,12.9,0,28.9c0,19.4,24.7,39.3,26.6,61.6H32.4z M29.4,9.5
	c11,0,19.9,8.9,19.9,19.9c0,11-8.9,19.9-19.9,19.9S9.5,40.4,9.5,29.4C9.5,18.4,18.4,9.5,29.4,9.5z"/>
</svg>
