<svg version="1.1" id="Layer_1" xmlns="http://www.w3.org/2000/svg" xmlns:xlink="http://www.w3.org/1999/xlink" x="0px" y="0px"
	 viewBox="0 0 42 42" style="enable-background:new 0 0 42 42;" xml:space="preserve">
<g>
	<path d="M37.3,4H33V2c0-1.1-0.9-2-2-2s-2,0.9-2,2v2H13V2c0-1.1-0.9-2-2-2S9,0.9,9,2v2H4.7C2.1,4,0,6,0,8.6v30.9
		C0.1,41,1.5,42.1,3,42h36c1.5,0.1,2.9-1,3-2.6V8.6C42,6,39.9,4,37.3,4z M30.4,25.5l-10.6,10c-0.8,0.7-2,0.7-2.8,0L11.6,30
		c-0.8-0.8-0.8-2.1,0-2.8s2.1-0.8,2.8,0l0,0l4,4.1l9.2-8.6c0.9-0.6,2.1-0.4,2.8,0.4C31,23.7,31,24.7,30.4,25.5z M4,8.6
		C4,8.2,4.4,8,4.7,8H9v2c0,1.1,0.9,2,2,2s2-0.9,2-2V8h16v2c0,1.1,0.9,2,2,2s2-0.9,2-2V8h4.3C37.7,8,38,8.2,38,8.6V16H4V8.6z"/>
</g>
</svg>
